<svg xmlns="http://www.w3.org/2000/svg" xmlns:xlink="http://www.w3.org/1999/xlink" version="1.1" baseProfile="full" viewBox="0 0 200 200" width="200" height="200">
<g fill="black">
<path d="M 130.8 184.1 L 111.6 183.2 L 95.0 181.4 L 81.1 178.3 L 69.6 173.9 L 60.6 167.8 L 54.4 160.0 L 51.80271492004395 153.09864253997802 L 50.111111068725585 153.94444446563722 L 49.4 154.9 L 46.2 159.0 L 42.9 162.8 L 39.6 166.4 L 36.3 169.8 L 33.0 172.9 L 29.7 175.9 L 26.4 178.7 L 23.33198595046997 181.02425308227538 L 23.1 185.2 L 19.9 183.6 L 12.0 174.3 L 13.8 173.3 L 17.0 171.7 L 20.4 169.9 L 23.8 167.9 L 27.4 165.7 L 31.1 163.4 L 34.8 160.8 L 38.7 158.1 L 42.7 155.3 L 44.0 154.42325582504273 L 44.0 91.0 L 14.0 91.0 L 14.0 87.0 L 44.0 87.0 L 50.0 82.0 L 61.0 91.0 L 56.0 95.0 L 56.0 151.0 L 55.859574508666995 151.0702127456665 L 59.3 156.7 L 65.2 162.2 L 73.1 166.3 L 83.4 169.3 L 96.3 171.2 L 112.1 172.2 L 130.9 172.3 L 152.7 171.6 L 177.7 170.4 L 189.0 169.8 L 178.2 183.5 L 153.0 184.1 Z M 131.0 21.0 L 134.0 23.0 L 131.0 24.8 L 131.0 61.0 L 161.0 61.0 L 171.0 51.0 L 183.0 61.0 L 183.0 65.0 L 131.0 65.0 L 131.0 162.0 L 119.0 168.0 L 119.0 65.0 L 73.0 65.0 L 73.0 61.0 L 119.0 61.0 L 119.0 19.0 Z M 106.6 86.3 L 109.1 88.9 L 105.45180721282959 90.0726333618164 L 104.5 93.2 L 102.1 100.2 L 99.4 107.1 L 96.4 114.0 L 93.0 120.9 L 89.3 127.8 L 85.3 134.6 L 80.9 141.3 L 76.0 148.0 L 70.7 154.4 L 69.2 153.5 L 72.8 146.0 L 76.2 138.7 L 79.5 131.5 L 82.5 124.4 L 85.3 117.5 L 87.8 110.6 L 90.0 103.7 L 91.9 97.0 L 93.5 90.2 L 94.9 83.6 L 94.91361255645752 83.60314140319824 L 95.3 81.8 Z M 163.5 126.2 L 162.1 120.8 L 160.4 115.5 L 158.4 110.3 L 156.2 105.1 L 153.7 99.9 L 151.0 94.8 L 148.0 89.6 L 144.9 84.3 L 146.3 83.1 L 151.0 87.2 L 155.3 91.7 L 159.2 96.4 L 162.8 101.4 L 166.0 106.5 L 168.9 111.9 L 171.5 117.4 L 173.8 123.1 L 175.7 128.9 L 177.3 134.9 L 176.3 139.4 L 172.5 141.9 L 168.0 140.9 L 165.5 137.1 L 164.6 131.6 Z M 46.0 50.2 L 44.0 47.2 L 41.8 44.2 L 39.3 41.2 L 36.6 38.2 L 33.7 35.2 L 30.5 32.2 L 27.1 29.2 L 23.4 26.2 L 24.3 24.6 L 28.8 26.4 L 33.1 28.2 L 37.2 30.3 L 41.1 32.7 L 44.8 35.2 L 48.2 37.9 L 51.4 40.7 L 54.4 43.8 L 57.1 47.0 L 59.6 50.3 L 60.2 54.9 L 57.5 58.5 L 52.9 59.1 L 49.3 56.4 L 47.7 53.3 Z M 155.4 43.2 L 154.1 40.9 L 152.7 38.7 L 151.1 36.5 L 149.2 34.3 L 147.2 32.2 L 144.9 30.1 L 142.4 27.9 L 139.5 26.2 L 140.2 24.5 L 143.6 25.5 L 146.9 26.4 L 150.2 27.6 L 153.2 29.1 L 156.1 30.8 L 158.8 32.7 L 161.4 34.8 L 163.8 37.2 L 166.0 39.8 L 168.0 42.6 L 168.2 47.1 L 165.3 50.6 L 160.7 50.9 L 157.2 48.0 L 156.4 45.6 Z " />
</g>
</svg>
