<svg xmlns="http://www.w3.org/2000/svg" baseProfile="full" version="1.1" width="840px" height="585px" style="fill: none; width: 840px; height: 585px;"><path d="" style="stroke-width: 15; stroke-linecap: round; stroke-linejoin: round; stroke: rgb(90, 105, 112); fill: none;"/><path d="" style="stroke-width: 15; stroke-linecap: round; stroke-linejoin: round; stroke: rgb(232, 218, 203); fill: none;"/><path d="M435,150 Q225,60 390,270 Q300,180 435,150 M450,270 Q690,345 450,150 Q555,270 450,270 Q690,345 450,150 Q555,270 450,270 Z M420,330 L420,330 L420,315 M405,435 Q615,525 450,315 Q540,405 405,435 M390,315 Q150,240 390,435 Q285,315 390,315 Q150,240 390,435 Q285,315 390,315 Z M420,255 L420,255 L420,270 " style="stroke-width: 15; stroke-linecap: round; stroke-linejoin: round; stroke: rgb(255, 255, 255); fill: none;"/></svg>