<svg xmlns="http://www.w3.org/2000/svg" baseProfile="full" version="1.1" width="840px" height="585px" style="fill: none; width: 840px; height: 585px;"><path d="" style="stroke-width: 15; stroke-linecap: round; stroke-linejoin: round; stroke: rgb(90, 105, 112); fill: none;"/><path d="" style="stroke-width: 15; stroke-linecap: round; stroke-linejoin: round; stroke: rgb(232, 218, 203); fill: none;"/><path d="M300,30 Q210,180 390,270 Q315,180 300,30 M450,270 Q570,270 600,30 Q525,180 450,270 Q570,270 600,30 Q525,180 450,270 Z M420,270 L420,270 L420,315 M405,300 L405,300 L435,300 M540,555 Q630,405 450,315 Q525,405 540,555 M390,315 Q270,315 240,555 Q315,405 390,315 Q270,315 240,555 Q315,405 390,315 Z M420,315 L420,315 L420,270 M435,285 L435,285 L405,285 " style="stroke-width: 15; stroke-linecap: round; stroke-linejoin: round; stroke: rgb(255, 255, 255); fill: none;"/></svg>