<svg xmlns="http://www.w3.org/2000/svg" baseProfile="full" version="1.1" width="915px" height="630px" style="fill: none; width: 915px; height: 630px;"><path d="" style="stroke-width: 15; stroke-linecap: round; stroke-linejoin: round; stroke: rgb(90, 105, 112); fill: none;"/><path d="" style="stroke-width: 15; stroke-linecap: round; stroke-linejoin: round; stroke: rgb(232, 218, 203); fill: none;"/><path d="M360,60 A60,180 0 0,1 300,240 A120,60 0 0,1 420,300 L420,180 M495,180 L495,300 A105,60 0 0,1 600,240 A60,180 0 0,1 540,60 M240,180 A60,120 0 0,0 300,300 M615,300 A45,120 0 0,0 660,180 M420,60 L420,60 L420,60 M420,570 L420,570 L420,570 M555,570 A60,180 0 0,1 615,390 A120,60 0 0,1 495,330 L495,450 M420,450 L420,330 A105,60 0 0,1 315,390 A60,180 0 0,1 375,570 M675,450 A60,120 0 0,0 615,330 M300,330 A45,120 0 0,0 255,450 M495,570 L495,570 L495,570 M495,60 L495,60 L495,60 " style="stroke-width: 15; stroke-linecap: round; stroke-linejoin: round; stroke: rgb(255, 255, 255); fill: none;"/></svg>